<svg xmlns="http://www.w3.org/2000/svg" viewBox="0 0 32 32" fill="none">
  <defs>
    <linearGradient id="syncGradient" x1="0%" y1="0%" x2="100%" y2="100%">
      <stop offset="0%" style="stop-color:#6366F1"/>
      <stop offset="100%" style="stop-color:#4F46E5"/>
    </linearGradient>
  </defs>
  <!-- Background circle -->
  <circle cx="16" cy="16" r="15" fill="url(#syncGradient)"/>
  <!-- Sync arrows -->
  <path d="M16 8C11.582 8 8 11.582 8 16H10.5C10.5 12.962 12.962 10.5 16 10.5C17.795 10.5 19.386 11.355 20.417 12.667L18 15H24V9L21.833 11.167C20.417 9.25 18.35 8 16 8Z" fill="white"/>
  <path d="M16 24C20.418 24 24 20.418 24 16H21.5C21.5 19.038 19.038 21.5 16 21.5C14.205 21.5 12.614 20.645 11.583 19.333L14 17H8V23L10.167 20.833C11.583 22.75 13.65 24 16 24Z" fill="white"/>
</svg>