<?xml version="1.0" encoding="UTF-8"?>
<svg width="32" height="32" viewBox="0 0 32 32" fill="none" xmlns="http://www.w3.org/2000/svg">
  <defs>
    <linearGradient id="faviconGradient" x1="0%" y1="0%" x2="100%" y2="100%">
      <stop offset="0%" style="stop-color:#3b82f6;stop-opacity:1" />
      <stop offset="100%" style="stop-color:#8b5cf6;stop-opacity:1" />
    </linearGradient>
  </defs>
  
  <!-- Compact Infinity for Favicon -->
  <path 
    d="M8,16 C8,12 10,10 13,11.5 C15,12.5 17,14 18,16 C19,18 20.5,19.5 22,20.5 C23.5,21.5 25,21.5 26,20 C27,18.5 27,16 26,14.5 C25,13 23.5,12.5 22,13.5 C20.5,14.5 19,16 18,18 C17,20 15,21.5 13,22.5 C10,24 8,22 8,18 C8,17 8,16.5 8,16 Z"
    fill="none"
    stroke="url(#faviconGradient)"
    stroke-width="2.5"
    stroke-linecap="round"
    stroke-linejoin="round"
  />
</svg>
