<?xml version="1.0" encoding="UTF-8"?>
<svg width="240" height="60" viewBox="0 0 240 60" fill="none" xmlns="http://www.w3.org/2000/svg">
  <defs>
    <linearGradient id="whiteLogoGradient" x1="0%" y1="0%" x2="100%" y2="0%">
      <stop offset="0%" style="stop-color:#ffffff;stop-opacity:1" />
      <stop offset="50%" style="stop-color:#e0e7ff;stop-opacity:1" />
      <stop offset="100%" style="stop-color:#ddd6fe;stop-opacity:0.9" />
    </linearGradient>
    <filter id="whiteGlow" x="-50%" y="-50%" width="200%" height="200%">
      <feGaussianBlur stdDeviation="2" result="blur"/>
      <feComposite in="SourceGraphic" in2="blur" operator="over"/>
    </filter>
  </defs>
  
  <!-- Infinity Symbol -->
  <path 
    d="M30,30 C30,20 35,16 42,20 C46,23 50,26 55,30 C60,34 64,37 68,40 C72,43 77,44 80,40 C83,36 83,30 80,26 C77,22 72,21 68,24 C64,27 60,30 55,34 C50,38 46,41 42,44 C35,48 30,44 30,34 C30,32 30,31 30,30 Z"
    fill="none"
    stroke="url(#whiteLogoGradient)"
    stroke-width="3"
    stroke-linecap="round"
    stroke-linejoin="round"
    filter="url(#whiteGlow)"
  />
  
  <!-- SyncRivo Text -->
  <text x="120" y="38" font-family="Inter, system-ui, sans-serif" font-size="24" font-weight="600" fill="#ffffff" letter-spacing="-0.5">
    SyncRivo
  </text>
</svg>
