<?xml version="1.0" encoding="UTF-8"?>
<svg width="110" height="60" viewBox="0 0 110 60" fill="none" xmlns="http://www.w3.org/2000/svg">
  <defs>
    <linearGradient id="primaryGradient" x1="0%" y1="0%" x2="100%" y2="0%">
      <stop offset="0%" style="stop-color:#3b82f6;stop-opacity:1" />
      <stop offset="50%" style="stop-color:#6366f1;stop-opacity:1" />
      <stop offset="100%" style="stop-color:#8b5cf6;stop-opacity:0.8" />
    </linearGradient>
    <filter id="softGlow" x="-50%" y="-50%" width="200%" height="200%">
      <feGaussianBlur stdDeviation="2" result="blur"/>
      <feComposite in="SourceGraphic" in2="blur" operator="over"/>
    </filter>
  </defs>
  
  <!-- Core Infinity Shape -->
  <path 
    d="M30,30 C30,20 35,16 42,20 C46,23 50,26 55,30 C60,34 64,37 68,40 C72,43 77,44 80,40 C83,36 83,30 80,26 C77,22 72,21 68,24 C64,27 60,30 55,34 C50,38 46,41 42,44 C35,48 30,44 30,34 C30,32 30,31 30,30 Z"
    fill="none"
    stroke="url(#primaryGradient)"
    stroke-width="3"
    stroke-linecap="round"
    stroke-linejoin="round"
    filter="url(#softGlow)"
  />
</svg>
